# xmcd
#
# Track frame offsets: 
#        150
#        17876
#        32368
#        49616
#        64228
#        81294
#        95777
#        112980
#        129410
#        148993
#        166074
#        189360
#        202265
#        218389
#        231165
#        250230
#        272300
#        289230
#
# Disc length: 4027 seconds
#
# Revision: 3
# Processed by: cddbd v1.5.2PL0 Copyright (c) Steve Scherf et al.
# Submitted via: ExactAudioCopy v0.99pb5
#
DISCID=000fb912
DTITLE=Various Artist - Modern Country Music - CD 1
DYEAR=2013
DGENRE=Country
TTITLE0=Tim McGraw - One of those nights
TTITLE1=Hayden Panettiere - Hypnotizing
TTITLE2=Chris LeDoux - Life is a highway
TTITLE3=Shania Twain - Today is your day
TTITLE4=Gary Allan - Every storm (runs out of rain)
TTITLE5=Julianne Hough - That song in my head
TTITLE6=Randy Rogers Band - Kiss me in the dark
TTITLE7=Debbie Nunn - Bubbles
TTITLE8=Mavericks - Back in your arms again
TTITLE9=Jamie O'Neal - Sanctuary
TTITLE10=Trisha Yearwood - Georgia rain
TTITLE11=Randy Houser - Boots on
TTITLE12=Holly Williams - Keep the change
TTITLE13=Nashfield - Kick it like country
TTITLE14=Jessica Andrews - Who I am
TTITLE15=Lee Ann Womack - I hope you dance
TTITLE16=Rascal Flatts - Why wait
TTITLE17=JT Hodges - Goodbyes made you mine
EXTD=
EXTT0=
EXTT1=
EXTT2=
EXTT3=
EXTT4=
EXTT5=
EXTT6=
EXTT7=
EXTT8=
EXTT9=
EXTT10=
EXTT11=
EXTT12=
EXTT13=
EXTT14=
EXTT15=
EXTT16=
EXTT17=
PLAYORDER=
